<svg aria-hidden="true" style="position: absolute; width: 0; height: 0; overflow: hidden;" version="1.1" xmlns="http://www.w3.org/2000/svg" xmlns:xlink="http://www.w3.org/1999/xlink">
<defs>
<symbol id="icon-add" viewBox="0 0 32 32">
<path d="M14.222 17.778h-13.63v-3.556h13.63v-13.63h3.556v13.63h13.63v3.556h-13.63v13.628h-3.556v-13.628z"></path>
</symbol>
<symbol id="icon-burger" viewBox="0 0 32 32">
<path fill="#fff" style="fill: var(--color1, #fff)" d="M7.635 20.443h17.324c0.176 0 0.326-0.062 0.449-0.186s0.186-0.277 0.186-0.459c0-0.169-0.062-0.316-0.186-0.439-0.124-0.13-0.273-0.195-0.449-0.195h-17.324c-0.176 0-0.326 0.065-0.449 0.195-0.124 0.124-0.186 0.27-0.186 0.439 0 0.182 0.062 0.335 0.186 0.459s0.273 0.186 0.449 0.186zM7.635 16.352h17.324c0.176 0 0.326-0.059 0.449-0.176 0.124-0.124 0.186-0.274 0.186-0.449 0-0.182-0.062-0.335-0.186-0.459s-0.273-0.186-0.449-0.186h-17.324c-0.176 0-0.326 0.062-0.449 0.186s-0.186 0.277-0.186 0.459c0 0.176 0.062 0.326 0.186 0.449 0.124 0.117 0.273 0.176 0.449 0.176zM7.635 12.27h17.324c0.176 0 0.326-0.062 0.449-0.185s0.186-0.274 0.186-0.449c0-0.169-0.062-0.316-0.186-0.44-0.124-0.13-0.273-0.195-0.449-0.195h-17.324c-0.176 0-0.326 0.065-0.449 0.195-0.124 0.124-0.186 0.27-0.186 0.44 0 0.176 0.062 0.325 0.186 0.449s0.273 0.185 0.449 0.185z"></path>
</symbol>
<symbol id="icon-more-dotes" viewBox="0 0 109 32">
<path d="M18.422 30.952c-3.52 0-6.533-1.253-9.040-3.76s-3.76-5.52-3.76-9.040 1.253-6.533 3.76-9.040c2.507-2.507 5.52-3.76 9.040-3.76s6.533 1.253 9.040 3.76c2.507 2.507 3.76 5.52 3.76 9.040s-1.253 6.533-3.76 9.040c-2.507 2.507-5.52 3.76-9.040 3.76zM56.822 30.952c-3.52 0-6.533-1.253-9.040-3.76s-3.76-5.52-3.76-9.040 1.253-6.533 3.76-9.040c2.507-2.507 5.52-3.76 9.040-3.76s6.533 1.253 9.040 3.76c2.507 2.507 3.76 5.52 3.76 9.040s-1.253 6.533-3.76 9.040c-2.507 2.507-5.52 3.76-9.040 3.76zM95.222 30.952c-3.52 0-6.533-1.253-9.040-3.76s-3.76-5.52-3.76-9.040 1.254-6.533 3.76-9.040c2.507-2.507 5.52-3.76 9.040-3.76s6.534 1.253 9.040 3.76c2.507 2.507 3.76 5.52 3.76 9.040s-1.253 6.533-3.76 9.040c-2.506 2.507-5.52 3.76-9.040 3.76z"></path>
</symbol>
<symbol id="icon-thin-add" viewBox="0 0 31 32">
<path d="M14.65 31.426v-14.423h-14.043v-2.404h14.043v-14.423h2.341v14.423h14.043v2.404h-14.043v14.423h-2.341z"></path>
</symbol>
<symbol id="icon-banners" viewBox="0 0 32 32">
<path fill="#b7b7b7" style="fill: var(--color1, #b7b7b7)" d="M8 18.354c0-0.552 0.448-1 1-1h7.334c0.552 0 1 0.448 1 1s-0.448 1-1 1h-7.334c-0.552 0-1-0.448-1-1z"></path>
<path fill="#b7b7b7" style="fill: var(--color1, #b7b7b7)" d="M8 13.516c0-0.552 0.448-1 1-1h3.562c0.552 0 1 0.448 1 1s-0.448 1-1 1h-3.562c-0.552 0-1-0.448-1-1z"></path>
<path fill="#b7b7b7" style="fill: var(--color1, #b7b7b7)" d="M11.587 5.333h9.495c1.227 0 2.207 0 2.999 0.063 0.813 0.064 1.512 0.199 2.158 0.515 1.129 0.553 2.043 1.466 2.596 2.596 0.316 0.646 0.451 1.346 0.515 2.158 0.063 0.792 0.063 1.772 0.063 2.999v3.825c0 1.227 0 2.207-0.063 2.999-0.064 0.812-0.199 1.512-0.515 2.158-0.553 1.129-1.467 2.043-2.596 2.596-0.646 0.317-1.346 0.451-2.158 0.515-0.792 0.063-1.772 0.063-2.999 0.063h-9.495c-1.227 0-2.207 0-2.999-0.063-0.812-0.064-1.512-0.199-2.158-0.515-1.129-0.553-2.043-1.466-2.596-2.596-0.316-0.646-0.451-1.346-0.515-2.158-0.063-0.792-0.063-1.772-0.063-2.999v-3.825c0-1.227 0-2.207 0.063-2.999 0.064-0.812 0.199-1.512 0.515-2.158 0.553-1.129 1.466-2.043 2.596-2.596 0.646-0.316 1.346-0.451 2.158-0.515 0.792-0.063 1.772-0.063 2.999-0.063zM8.745 7.39c-0.693 0.055-1.11 0.158-1.436 0.318-0.731 0.358-1.322 0.949-1.68 1.68-0.159 0.325-0.263 0.743-0.318 1.436-0.056 0.704-0.056 1.605-0.056 2.884v3.741c0 1.279 0.001 2.18 0.056 2.884 0.055 0.693 0.158 1.11 0.318 1.436 0.358 0.731 0.949 1.322 1.68 1.68 0.325 0.159 0.743 0.263 1.436 0.317 0.704 0.056 1.605 0.056 2.884 0.056h9.411c1.279 0 2.18-0.001 2.884-0.056 0.693-0.055 1.11-0.158 1.436-0.317 0.731-0.358 1.322-0.949 1.68-1.68 0.159-0.325 0.263-0.743 0.318-1.436 0.056-0.704 0.056-1.605 0.056-2.884v-3.741c0-1.279-0.001-2.18-0.056-2.884-0.055-0.693-0.158-1.11-0.318-1.436-0.358-0.731-0.949-1.322-1.68-1.68-0.325-0.159-0.743-0.263-1.436-0.318-0.704-0.056-1.605-0.056-2.884-0.056h-9.411c-1.279 0-2.18 0.001-2.884 0.056z"></path>
</symbol>
<symbol id="icon-media" viewBox="0 0 32 32">
<path fill="none" stroke="#b7b7b7" style="stroke: var(--color1, #b7b7b7)" stroke-linejoin="round" stroke-linecap="round" stroke-miterlimit="4" stroke-width="2" d="M10.458 25.099l1.617-1.704c0.284-0.3 0.762-0.293 1.037 0.014l1.338 1.49c0.285 0.318 0.786 0.31 1.064-0.017l2.768-3.268c0.27-0.319 0.757-0.335 1.046-0.034l2.21 2.291"></path>
<path fill="none" stroke="#b7b7b7" style="stroke: var(--color1, #b7b7b7)" stroke-linejoin="round" stroke-linecap="round" stroke-miterlimit="4" stroke-width="2" d="M18.381 8c0.744 0 1.456 0.302 1.971 0.84l5.055 5.266c0.489 0.509 0.762 1.187 0.762 1.893v10.885c0.019 2.742-2.137 5.004-4.876 5.116l-10.567-0.001c-2.764-0.061-4.955-2.35-4.894-5.114v-14.009c0.065-2.719 2.293-4.887 5.013-4.875h7.536z"></path>
<path fill="none" stroke="#b7b7b7" style="stroke: var(--color1, #b7b7b7)" stroke-linejoin="round" stroke-linecap="round" stroke-miterlimit="4" stroke-width="2" d="M19.026 8.083v3.857c-0.001 1.882 1.522 3.41 3.405 3.414h3.652"></path>
<path fill="none" stroke="#b7b7b7" style="stroke: var(--color1, #b7b7b7)" stroke-linejoin="round" stroke-linecap="round" stroke-miterlimit="4" stroke-width="2" d="M12.34 18.923h-0.085M12.322 19.268c-0.192 0-0.348-0.156-0.348-0.348s0.156-0.348 0.348-0.348c0.192 0 0.348 0.156 0.348 0.348s-0.156 0.348-0.348 0.348z"></path>
</symbol>
<symbol id="icon-color_fonts" viewBox="0 0 32 32">
<path fill="#b7b7b7" style="fill: var(--color1, #b7b7b7)" d="M17.693 5.566c-0.757-0.752-1.98-0.748-2.733 0.010l-0.001 0.002-0.936 0.937c-0.737 0.73-1.731 1.14-2.768 1.141h-1.335c-0 0 0 0 0 0-1.068 0.001-1.933 0.866-1.933 1.933 0 0.024-0.001 0.049-0.003 0.073v1.257c0 1.041-0.413 2.035-1.144 2.772l-0.002 0.002-0.946 0.947c-0.751 0.758-0.745 1.98 0.013 2.731l0.004 0.004 0.934 0.935c0.732 0.735 1.144 1.73 1.144 2.77v1.341c0 1.067 0.865 1.932 1.932 1.932h1.333c1.037 0.002 2.033 0.411 2.769 1.144l0.002 0.002 0.927 0.927c0.010 0.009 0.020 0.019 0.030 0.030 0.759 0.737 1.972 0.727 2.719-0.026l0.004-0.004 0.935-0.934c0.736-0.732 1.732-1.144 2.771-1.144h1.34c1.066 0.001 1.932-0.863 1.935-1.929 0-0 0 0 0 0v-1.337c0-1.038 0.411-2.034 1.143-2.77l0.002-0.002 0.944-0.944c0.753-0.759 0.748-1.983-0.009-2.734l-0.939-0.939c-0.732-0.737-1.142-1.734-1.142-2.772v-1.333c0-1.067-0.866-1.933-1.933-1.933h-1.337c-1.038 0-2.035-0.41-2.771-1.143l-0.002-0.002-0.914-0.914c-0.011-0.010-0.021-0.020-0.031-0.030zM17.693 5.566c-0-0 0 0 0 0l0.289-0.289 0.417-0.42-0.707 0.707 0.001 0.001zM14.967 26.441v0c0 0-0-0 0 0zM5.988 9.505c0.045-2.133 1.787-3.848 3.93-3.849h1.334c0.51-0.001 0.998-0.202 1.361-0.561l0.929-0.93c-0 0 0-0 0 0 1.525-1.533 4.002-1.549 5.544-0.035 0.011 0.010 0.023 0.021 0.034 0.032l0.932 0.932c-0-0 0 0 0 0 0.361 0.359 0.85 0.561 1.36 0.561h1.337c2.172 0 3.933 1.761 3.933 3.933v1.333c0 0.51 0.201 0.999 0.561 1.361 0 0 0.001 0.001 0.001 0.001l0.929 0.929c0 0 0.001 0.001 0.001 0.001 1.532 1.523 1.547 3.994 0.042 5.537-0.016 0.017-0.032 0.033-0.048 0.048l-0.923 0.923c-0 0 0-0 0 0-0.359 0.361-0.561 0.849-0.561 1.359v1.34c-0.004 2.17-1.765 3.928-3.935 3.926h-1.339c-0.509 0-0.999 0.202-1.36 0.562l-0.929 0.928-0.71-0.704 0.707 0.707 0.002-0.002c-1.529 1.541-4.018 1.551-5.559 0.023 0.035 0.034 0.069 0.062 0.097 0.084 0.018 0.013 0.032 0.024 0.042 0.030 0.003 0.002 0.006 0.004 0.008 0.006 0.011 0.007 0.020 0.013 0.025 0.016-0.005-0.003-0.016-0.010-0.025-0.016-0.003-0.002-0.005-0.004-0.008-0.006-0.012-0.008-0.027-0.018-0.042-0.030-0.027-0.020-0.061-0.048-0.097-0.084-0.002-0.002-0.003-0.004-0.005-0.006-0.004-0.004-0.008-0.008-0.011-0.012-0.032-0.034-0.066-0.073-0.098-0.119-0.129-0.183-0.181-0.388-0.181-0.573 0 0.259 0.1 0.506 0.279 0.692l-0.931-0.93 0.705-0.709-0.707 0.707 0.002 0.002c-0.36-0.358-0.85-0.561-1.361-0.562h-1.331c-2.172 0-3.932-1.76-3.932-3.932v-1.341c0-0.508-0.202-0.997-0.561-1.358l-0.928-0.929 0.704-0.71-0.708 0.707 0.002 0.002c-1.541-1.529-1.55-4.015-0.024-5.556l0.004-0.004 0.016-0.016 0.93-0.932 0.71 0.705-0.708-0.707-0.002 0.002c0.36-0.363 0.563-0.853 0.563-1.362v-1.329c0-0.028 0.001-0.056 0.003-0.084zM13.542 27.843v0zM13.553 27.855l-0.011-0.012c0.004 0.004 0.008 0.008 0.011 0.012z"></path>
<path fill="#b7b7b7" style="fill: var(--color1, #b7b7b7)" d="M12.938 17.333c0-0.552 0.448-1 1-1h4.782c0.552 0 1 0.448 1 1s-0.448 1-1 1h-4.782c-0.552 0-1-0.448-1-1z"></path>
<path fill="#b7b7b7" style="fill: var(--color1, #b7b7b7)" d="M16.333 10.854c0.398 0 0.757 0.235 0.916 0.6l3.248 7.437c0.221 0.506-0.010 1.096-0.516 1.317s-1.096-0.010-1.317-0.516l-2.332-5.339-2.333 5.339c-0.221 0.506-0.811 0.737-1.317 0.516s-0.737-0.811-0.516-1.317l3.25-7.437c0.159-0.364 0.519-0.6 0.916-0.6z"></path>
</symbol>
<symbol id="icon-stickers" viewBox="0 0 32 32">
<path fill="none" stroke="#b7b7b7" style="stroke: var(--color1, #b7b7b7)" stroke-linejoin="round" stroke-linecap="round" stroke-miterlimit="4" stroke-width="1.9469" d="M14.113 22.553l-0.916 0.153c-0.671 0.112-1.263-0.446-1.19-1.122l0.102-0.946c0.049-0.456 0.24-0.886 0.546-1.228l3.993-4.357c0.471-0.51 1.267-0.541 1.777-0.069l0.841 0.781c0.51 0.472 0.541 1.267 0.069 1.777l-3.949 4.309c-0.332 0.371-0.782 0.62-1.275 0.702z"></path>
<path fill="none" stroke="#b7b7b7" style="stroke: var(--color1, #b7b7b7)" stroke-linejoin="miter" stroke-linecap="butt" stroke-miterlimit="4" stroke-width="1.8444" d="M8.911 4.278c-1.528 0-2.767 1.239-2.767 2.767v18.444c0 1.528 1.239 2.767 2.767 2.767h13.496c1.528 0 2.767-1.239 2.767-2.767v-14.484c0-0.84-0.382-1.635-1.038-2.16l-4.951-3.96c-0.491-0.392-1.1-0.606-1.728-0.606h-8.545z"></path>
<path fill="none" stroke="#b7b7b7" style="stroke: var(--color1, #b7b7b7)" stroke-linejoin="round" stroke-linecap="round" stroke-miterlimit="4" stroke-width="1.9469" d="M18.131 4.667v3.754c-0.001 1.832 1.482 3.32 3.315 3.324h3.555"></path>
</symbol>
<symbol id="icon-general_fonts" viewBox="0 0 32 32">
<path fill="none" stroke="#b7b7b7" style="stroke: var(--color1, #b7b7b7)" stroke-linejoin="round" stroke-linecap="round" stroke-miterlimit="4" stroke-width="2" d="M18.176 21.387h-3.75M16.298 13.885v7.502M12.549 15.761v-1.25c0-0.345 0.28-0.626 0.626-0.626h6.25c0.346 0 0.626 0.281 0.626 0.626v1.25"></path>
<path fill="none" stroke="#b7b7b7" style="stroke: var(--color1, #b7b7b7)" stroke-linejoin="miter" stroke-linecap="butt" stroke-miterlimit="4" stroke-width="2" d="M7.333 3c-1.657 0-3 1.343-3 3v18.667c0 1.657 1.343 3 3 3h17.333c1.657 0 3-1.343 3-3v-14c0-1.657-1.343-3-3-3h-6.304c-0.323 0-0.626-0.156-0.814-0.419l-2.137-2.992c-0.563-0.788-1.472-1.256-2.441-1.256h-5.637z"></path>
</symbol>
<symbol id="icon-gifs" viewBox="0 0 32 32">
<path fill="none" stroke="#b7b7b7" style="stroke: var(--color1, #b7b7b7)" stroke-linejoin="miter" stroke-linecap="butt" stroke-miterlimit="4" stroke-width="2" d="M7.333 4.333h18.667c1.657 0 3 1.343 3 3v17.333c0 1.657-1.343 3-3 3h-18.667c-1.657 0-3-1.343-3-3v-17.333c0-1.657 1.343-3 3-3z"></path>
<path fill="#b7b7b7" style="fill: var(--color1, #b7b7b7)" d="M9.667 16.849v-0.828c0-1.974 1.266-3.25 3.276-3.25 0.781 0 1.51 0.198 2.052 0.521 0.536 0.318 0.88 0.755 0.88 1.229 0 0.5-0.359 0.854-0.87 0.854-0.208 0-0.385-0.057-0.542-0.146-0.422-0.224-0.734-0.641-1.349-0.641-0.854 0-1.26 0.51-1.26 1.552v0.698c0 1.031 0.406 1.568 1.198 1.568 0.578 0 0.974-0.333 0.974-0.818v-0.083h-0.193c-0.547 0-0.839-0.26-0.839-0.74 0-0.474 0.286-0.719 0.839-0.719h1.068c0.818 0 1.172 0.344 1.172 1.12v0.224c0 1.682-1.219 2.766-3.12 2.766-2.068 0-3.286-1.24-3.286-3.307zM16.906 12.938c0-0.557 0.448-0.953 1.089-0.953 0.635 0 1.083 0.396 1.083 0.953 0 0.563-0.448 0.958-1.083 0.958-0.641 0-1.089-0.396-1.089-0.958zM19.052 18.896c0 0.75-0.37 1.156-1.057 1.156s-1.057-0.406-1.057-1.156v-3.396c0-0.75 0.37-1.156 1.057-1.156s1.057 0.406 1.057 1.156v3.396zM22.76 18.896c0 0.75-0.37 1.156-1.052 1.156s-1.062-0.406-1.062-1.156v-2.922h-0.089c-0.547 0-0.849-0.276-0.849-0.771s0.302-0.792 0.849-0.792h0.089v-0.292c0-1.37 0.677-1.885 2.005-1.885 0.422 0 0.755 0.073 0.99 0.203 0.26 0.146 0.396 0.365 0.396 0.625 0 0.344-0.224 0.568-0.531 0.568-0.12 0-0.245-0.011-0.365-0.011-0.276 0-0.443 0.099-0.443 0.443v0.349h0.349c0.547 0 0.849 0.286 0.849 0.781s-0.302 0.781-0.849 0.781h-0.287v2.922z"></path>
</symbol>
<symbol id="icon-notifications" viewBox="0 0 32 32">
<path fill="#b7b7b7" style="fill: var(--color1, #b7b7b7); stroke: var(--color1, #b7b7b7)" stroke="#b7b7b7" stroke-linejoin="miter" stroke-linecap="butt" stroke-miterlimit="4" stroke-width="1.2952" d="M9.471 6.47v0c-1.388 1.789-2.034 4.020-2.034 5.807 0 0.538 0.016 0.937 0.029 1.246v0l0 0.007c0.003 0.061 0.005 0.12 0.007 0.175v0c0.013 0.337 0.013 0.554-0.024 0.782l2.021-8.017zM9.471 6.47c1.396-1.8 3.546-3.155 6.529-3.155s5.132 1.355 6.529 3.155c1.388 1.789 2.034 4.020 2.034 5.807 0 0.536-0.016 0.934-0.029 1.243l-0 0.003v0M9.471 6.47l15.063 7.054M24.533 13.523l-0.007 0.18v0.001M24.533 13.523l-0.007 0.182M24.526 13.705c-0.013 0.336-0.013 0.554 0.024 0.782M24.526 13.705l1.064 3.402M25.59 17.107l-0-0.001c-0.002-0.005-0.004-0.011-0.007-0.017l0 0.001c-0.369-0.813-0.606-1.345-0.758-1.72-0.152-0.376-0.235-0.631-0.275-0.884M25.59 17.107c0.468 1.203 0.353 2.26-0.174 3.15M25.59 17.107l-0.174 3.15M24.549 14.487l0 0c-0 0-0 0-0-0zM8.113 13.49l-0-0.001c-0.013-0.311-0.028-0.69-0.028-1.212 0-1.651 0.602-3.74 1.898-5.41 1.288-1.66 3.257-2.905 6.017-2.905s4.729 1.244 6.017 2.905c1.296 1.67 1.898 3.759 1.898 5.41 0 0.523-0.015 0.902-0.028 1.213 0 0 0 0 0 0s0 0 0 0l-0.008 0.191v0c-0.013 0.341-0.017 0.613 0.031 0.909v0c0.092 0.57 0.375 1.208 1.058 2.713l0 0.001 0.013 0.029 0.008 0.018 0.007 0.019c0.388 1.019 0.277 1.857-0.138 2.557v0c-0.43 0.724-1.205 1.336-2.193 1.829v0c-1.977 0.986-4.68 1.437-6.665 1.437s-4.689-0.451-6.666-1.437h-0c-0.989-0.493-1.764-1.105-2.193-1.829h-0c-0.415-0.701-0.526-1.539-0.138-2.558l0.007-0.019 0.009-0.019 0.013-0.027c0.683-1.505 0.966-2.143 1.058-2.713l0.024-1.101zM8.113 13.49c0.003 0.067 0.005 0.13 0.008 0.191M8.113 13.49l0.008 0.191M25.415 20.257c-0.518 0.874-1.416 1.557-2.461 2.078l2.461-2.078zM7.174 15.37c-0.152 0.375-0.389 0.907-0.758 1.72l-0.59-0.268 1.348-1.452zM7.174 15.37c0.152-0.376 0.235-0.631 0.275-0.884l-0.275 0.884zM8.12 13.681c0.013 0.341 0.016 0.613-0.031 0.91l0.031-0.91z"></path>
<path fill="#b7b7b7" style="fill: var(--color1, #b7b7b7); stroke: var(--color1, #b7b7b7)" stroke="#b7b7b7" stroke-linejoin="miter" stroke-linecap="butt" stroke-miterlimit="4" stroke-width="1.2952" d="M13.249 26.733l-0-0c-0.119-0.133-0.324-0.145-0.457-0.026l0.457 0.026zM13.249 26.733c0.762 0.853 1.743 1.307 2.755 1.304s1.989-0.46 2.746-1.305v-0M13.249 26.733l5.501-0.001M18.751 26.733c0.119-0.133 0.324-0.145 0.457-0.025s0.145 0.324 0.025 0.457v0M18.751 26.733l0.482 0.432M19.233 27.165c-1.804 2.015-4.644 2.040-6.467-0v-0M19.233 27.165l-6.467-0M12.766 27.164c-0.119-0.133-0.108-0.338 0.026-0.457l-0.026 0.457z"></path>
</symbol>
<symbol id="icon-categories" viewBox="0 0 32 32">
<path fill="none" stroke="#b7b7b7" style="stroke: var(--color1, #b7b7b7)" stroke-linejoin="miter" stroke-linecap="butt" stroke-miterlimit="4" stroke-width="2.1137" d="M19.662 3.526l7.533 2.018c1.691 0.453 2.695 2.192 2.242 3.883l-3.572 13.332c-0.453 1.691-2.192 2.695-3.883 2.242l-7.533-2.018c-1.691-0.453-2.695-2.192-2.242-3.883l3.572-13.332c0.453-1.691 2.192-2.695 3.883-2.242z"></path>
<path fill="#b7b7b7" style="fill: var(--color1, #b7b7b7)" d="M18.14 24.005v0.546c0 1.167-0.946 2.114-2.114 2.114h-7.799c-1.167 0-2.114-0.946-2.114-2.114v-13.802c0-1.167 0.946-2.114 2.114-2.114h6.967l0.587-2.114h-7.555c-2.335 0-4.227 1.893-4.227 4.227v13.802c0 2.335 1.893 4.227 4.227 4.227h7.799c2.335 0 4.227-1.893 4.227-4.227v-0.123l-2.114-0.423z"></path>
</symbol>
<symbol id="icon-hash_keys" viewBox="0 0 32 32">
<path fill="none" stroke="#b7b7b7" style="stroke: var(--color1, #b7b7b7)" stroke-linejoin="round" stroke-linecap="round" stroke-miterlimit="4" stroke-width="2" d="M23.217 9.396l-0.009-0.009c-0.283-0.283-0.481-0.638-0.537-1.034l-0.258-1.811c-0.086-0.594-0.471-1.1-1.015-1.358-0.372-0.175-0.752-0.333-1.14-0.472-0.566-0.202-1.196-0.118-1.677 0.243l-1.466 1.099c-0.319 0.24-0.708 0.352-1.107 0.352h-0.016c-0.398 0-0.789-0.112-1.107-0.352l-1.466-1.099c-0.481-0.361-1.111-0.445-1.677-0.243-0.388 0.139-0.768 0.296-1.14 0.472-0.544 0.257-0.93 0.763-1.014 1.358l-0.259 1.812c-0.057 0.396-0.254 0.75-0.536 1.033-0.003 0.003-0.007 0.005-0.009 0.009-0.283 0.283-0.638 0.48-1.034 0.537l-1.811 0.258c-0.595 0.084-1.1 0.47-1.358 1.013-0.176 0.372-0.333 0.754-0.472 1.14-0.202 0.567-0.118 1.197 0.243 1.679l1.105 1.474c0.23 0.305 0.35 0.677 0.352 1.059 0 0.029 0 0.057 0.001 0.086 0.003 0.385-0.121 0.759-0.352 1.068l-1.107 1.475c-0.361 0.48-0.445 1.111-0.243 1.676 0.139 0.388 0.296 0.769 0.472 1.142 0.257 0.544 0.763 0.929 1.358 1.015l1.812 0.259c0.396 0.056 0.75 0.253 1.033 0.536 0.003 0.003 0.005 0.007 0.009 0.009 0.281 0.281 0.479 0.637 0.536 1.033l0.259 1.812c0.084 0.594 0.47 1.1 1.013 1.357 0.372 0.177 0.754 0.335 1.14 0.474 0.567 0.202 1.197 0.118 1.679-0.244l1.465-1.098c0.319-0.24 0.71-0.352 1.109-0.35h0.013c0.4-0.001 0.79 0.11 1.109 0.35l1.463 1.098c0.481 0.361 1.112 0.446 1.677 0.244 0.388-0.139 0.769-0.297 1.142-0.472 0.544-0.258 0.929-0.763 1.015-1.358l0.261-1.824c0.055-0.377 0.231-0.727 0.501-0.998 0.019-0.021 0.039-0.040 0.058-0.060 0.271-0.275 0.623-0.453 1.004-0.507l1.825-0.261c0.594-0.086 1.1-0.471 1.357-1.015 0.176-0.371 0.335-0.752 0.473-1.14 0.202-0.566 0.118-1.196-0.244-1.677l-1.105-1.475c-0.228-0.305-0.35-0.676-0.351-1.057 0-0.029 0-0.057-0.001-0.084-0.003-0.387 0.121-0.761 0.353-1.070l1.105-1.474c0.361-0.481 0.446-1.111 0.244-1.677-0.139-0.388-0.297-0.768-0.472-1.14-0.258-0.544-0.763-0.93-1.358-1.014l-1.814-0.259c-0.394-0.057-0.75-0.253-1.031-0.536z"></path>
<path fill="none" stroke="#b7b7b7" style="stroke: var(--color1, #b7b7b7)" stroke-linejoin="round" stroke-linecap="round" stroke-miterlimit="4" stroke-width="2" d="M17.413 16.601c0 1.328 1.075 2.403 2.403 2.403s2.403-1.075 2.403-2.403c0-1.327-1.075-2.403-2.403-2.403h-0.005c-1.325 0.003-2.397 1.079-2.397 2.403z"></path>
<path fill="none" stroke="#b7b7b7" style="stroke: var(--color1, #b7b7b7)" stroke-linejoin="round" stroke-linecap="round" stroke-miterlimit="4" stroke-width="2" d="M17.35 16.605h-7.568v2.403"></path>
<path fill="none" stroke="#b7b7b7" style="stroke: var(--color1, #b7b7b7)" stroke-linejoin="round" stroke-linecap="round" stroke-miterlimit="4" stroke-width="2" d="M13.449 19.007v-2.403"></path>
</symbol>
<symbol id="icon-tutorial" viewBox="0 0 32 32">
<path fill="none" stroke="#b7b7b7" style="stroke: var(--color1, #b7b7b7)" stroke-linejoin="round" stroke-linecap="round" stroke-miterlimit="4" stroke-width="2" d="M28 16c0-6.627-5.372-12-12-12s-12 5.373-12 12c0 6.628 5.372 12 12 12s12-5.372 12-12z"></path>
<path fill="none" stroke="#b7b7b7" style="stroke: var(--color1, #b7b7b7)" stroke-linejoin="round" stroke-linecap="round" stroke-miterlimit="4" stroke-width="2" d="M19.79 16.001c0-1.030-5.251-4.308-5.847-3.719-0.597 0.59-0.654 6.781 0 7.427 0.653 0.645 5.847-2.689 5.847-3.708z"></path>
</symbol>
<symbol id="icon-attention" viewBox="0 0 32 32">
<path fill="none" stroke="#ff3b30" style="stroke: var(--color1, #ff3b30)" stroke-linejoin="round" stroke-linecap="round" stroke-miterlimit="4" stroke-width="2.4" d="M16 30.4c7.953 0 14.4-6.447 14.4-14.4s-6.447-14.4-14.4-14.4c-7.953 0-14.4 6.447-14.4 14.4s6.447 14.4 14.4 14.4z"></path>
<path fill="none" stroke="#ff3b30" style="stroke: var(--color1, #ff3b30)" stroke-linejoin="round" stroke-linecap="butt" stroke-miterlimit="4" stroke-width="3.6" d="M16 22.4h0.016v0.016h-0.016v-0.016z"></path>
<path fill="none" stroke="#ff3b30" style="stroke: var(--color1, #ff3b30)" stroke-linejoin="round" stroke-linecap="round" stroke-miterlimit="4" stroke-width="2.4" d="M16 16v-6.4"></path>
</symbol>
<symbol id="icon-check" viewBox="0 0 32 32">
<path fill="#e5e5e5" style="fill: var(--color1, #e5e5e5)" opacity="0.1" d="M32 16c0 8.837-7.163 16-16 16s-16-7.163-16-16c0-8.837 7.163-16 16-16s16 7.163 16 16z"></path>
<path fill="#e5e5e5" style="fill: var(--color1, #e5e5e5)" d="M14.202 22.444c0.308 0 0.551-0.136 0.723-0.394l6.395-10.033c0.129-0.208 0.179-0.365 0.179-0.53 0-0.408-0.272-0.68-0.68-0.68-0.286 0-0.451 0.1-0.63 0.38l-6.016 9.575-3.115-4.053c-0.186-0.244-0.358-0.344-0.623-0.344-0.415 0-0.709 0.286-0.709 0.695 0 0.172 0.072 0.351 0.215 0.537l3.509 4.447c0.222 0.272 0.437 0.401 0.752 0.401z"></path>
</symbol>
<symbol id="icon-regions" viewBox="0 0 32 32">
<path fill="#b7b7b7" style="fill: var(--color1, #b7b7b7)" d="M16.333 5c-6.076 0-11 4.924-11 11s4.924 11 11 11c6.076 0 11-4.924 11-11s-4.924-11-11-11zM3.333 16c0-7.18 5.82-13 13-13s13 5.82 13 13c0 7.18-5.82 13-13 13s-13-5.82-13-13z"></path>
<path fill="#b7b7b7" style="fill: var(--color1, #b7b7b7)" d="M14.111 7.863c-0.757 2.034-1.245 4.91-1.245 8.137s0.488 6.103 1.245 8.137c0.38 1.021 0.808 1.777 1.233 2.26 0.426 0.485 0.763 0.604 0.988 0.604s0.562-0.119 0.988-0.604c0.425-0.483 0.853-1.239 1.233-2.26 0.757-2.034 1.245-4.91 1.245-8.137s-0.488-6.103-1.245-8.137c-0.38-1.021-0.808-1.777-1.233-2.26-0.426-0.484-0.763-0.604-0.988-0.604s-0.562 0.119-0.988 0.604c-0.425 0.483-0.853 1.239-1.233 2.26zM13.843 4.282c0.642-0.73 1.481-1.282 2.49-1.282s1.847 0.552 2.489 1.282c0.644 0.731 1.178 1.733 1.606 2.883 0.859 2.309 1.371 5.433 1.371 8.834s-0.511 6.525-1.371 8.834c-0.428 1.151-0.962 2.152-1.606 2.883-0.642 0.73-1.481 1.282-2.489 1.282s-1.847-0.552-2.49-1.282c-0.644-0.731-1.178-1.733-1.606-2.883-0.86-2.309-1.371-5.433-1.371-8.834s0.511-6.525 1.371-8.834c0.428-1.151 0.962-2.152 1.606-2.883z"></path>
<path fill="#b7b7b7" style="fill: var(--color1, #b7b7b7)" d="M5.937 15.010c-0.484 0.427-0.604 0.763-0.604 0.988s0.119 0.562 0.604 0.988c0.483 0.425 1.239 0.853 2.26 1.233 2.034 0.757 4.91 1.245 8.137 1.245s6.103-0.488 8.137-1.245c1.021-0.38 1.777-0.808 2.26-1.233 0.485-0.426 0.604-0.763 0.604-0.988s-0.119-0.562-0.604-0.988c-0.483-0.425-1.239-0.853-2.26-1.233-2.034-0.757-4.91-1.245-8.137-1.245s-6.103 0.488-8.137 1.245c-1.021 0.38-1.777 0.808-2.26 1.233zM7.499 11.902c2.309-0.86 5.433-1.371 8.834-1.371s6.525 0.511 8.834 1.371c1.151 0.428 2.152 0.962 2.883 1.606 0.73 0.642 1.282 1.481 1.282 2.49s-0.552 1.847-1.282 2.489c-0.731 0.644-1.733 1.178-2.883 1.606-2.309 0.86-5.433 1.371-8.834 1.371s-6.525-0.511-8.834-1.371c-1.151-0.428-2.152-0.962-2.883-1.606-0.73-0.642-1.282-1.481-1.282-2.489s0.552-1.847 1.282-2.49c0.731-0.644 1.733-1.178 2.883-1.606z"></path>
</symbol>
<symbol id="icon-feedbacks" viewBox="0 0 32 32">
<path fill="none" stroke="#b7b7b7" style="stroke: var(--color1, #b7b7b7)" stroke-linejoin="round" stroke-linecap="round" stroke-miterlimit="4" stroke-width="2" d="M15.008 27.325l-1.895-1.902c-0.54-0.542-1.271-0.845-2.034-0.845h-1.424c-2.901 0-5.253-2.36-5.253-5.271v-9.252c0-2.911 2.352-5.269 5.253-5.269h13.496c2.901 0 5.251 2.359 5.251 5.269v9.252c0 2.911-2.351 5.271-5.251 5.271h-1.424c-0.763 0-1.495 0.303-2.034 0.845l-1.897 1.902c-0.769 0.773-2.016 0.773-2.787 0z"></path>
<path fill="none" stroke="#b7b7b7" style="stroke: var(--color1, #b7b7b7)" stroke-linejoin="round" stroke-linecap="round" stroke-miterlimit="4" stroke-width="2" d="M11.982 15.279c0.742 1.695 2.443 2.885 4.419 2.885 1.977 0 3.678-1.19 4.42-2.885"></path>
</symbol>
<symbol id="icon-tags" viewBox="0 0 32 32">
<path fill="#b7b7b7" style="fill: var(--color1, #b7b7b7)" d="M5.32 5.197c1.313-1.408 3.182-2.196 5.389-2.196h11.246c2.212 0 4.083 0.788 5.395 2.197 1.305 1.401 1.983 3.335 1.983 5.505v10.596c0 2.17-0.678 4.104-1.983 5.505-1.312 1.409-3.183 2.197-5.396 2.197h-11.245c-2.212 0-4.082-0.788-5.394-2.197-1.304-1.401-1.982-3.335-1.982-5.505v-10.596c0-2.171 0.682-4.105 1.987-5.505zM6.783 6.56c-0.903 0.969-1.45 2.386-1.45 4.142v10.596c0 1.757 0.545 3.174 1.446 4.142 0.894 0.96 2.212 1.56 3.93 1.56h11.245c1.719 0 3.038-0.6 3.932-1.56 0.902-0.968 1.447-2.385 1.447-4.142v-10.596c0-1.757-0.545-3.174-1.447-4.142-0.894-0.96-2.213-1.56-3.931-1.56h-11.246c-1.712 0-3.031 0.599-3.926 1.56z"></path>
<path fill="#b7b7b7" style="fill: var(--color1, #b7b7b7)" d="M14.558 9.867c0.548 0.069 0.936 0.57 0.866 1.118l-0.188 1.483h3.124l0.22-1.734c0.069-0.548 0.57-0.936 1.118-0.866s0.936 0.57 0.866 1.118l-0.188 1.483h1.391c0.552 0 1 0.448 1 1s-0.448 1-1 1h-1.644l-0.388 3.063h1.586c0.552 0 1 0.448 1 1s-0.448 1-1 1h-1.839l-0.22 1.734c-0.069 0.548-0.57 0.936-1.118 0.866s-0.936-0.57-0.866-1.118l0.188-1.483h-3.124l-0.22 1.734c-0.069 0.548-0.57 0.936-1.118 0.866s-0.936-0.57-0.866-1.118l0.188-1.483h-1.426c-0.552 0-1-0.448-1-1s0.448-1 1-1h1.68l0.388-3.063h-1.621c-0.552 0-1-0.448-1-1s0.448-1 1-1h1.874l0.22-1.734c0.069-0.548 0.57-0.936 1.118-0.866zM14.983 14.468l-0.388 3.063h3.124l0.388-3.063h-3.124z"></path>
</symbol>
<symbol id="icon-user_stories" viewBox="0 0 32 32">
<path fill="none" stroke="#b7b7b7" style="stroke: var(--color1, #b7b7b7)" stroke-linejoin="round" stroke-linecap="round" stroke-miterlimit="4" stroke-width="2" d="M9.66 19.709l3.991-5.187 4.552 3.576 3.905-5.040"></path>
<path fill="none" stroke="#b7b7b7" style="stroke: var(--color1, #b7b7b7)" stroke-linejoin="round" stroke-linecap="round" stroke-miterlimit="4" stroke-width="2" d="M26.661 8.164c1.415 0 2.563-1.147 2.563-2.563s-1.147-2.563-2.563-2.563c-1.415 0-2.563 1.147-2.563 2.563s1.147 2.563 2.563 2.563z"></path>
<path fill="none" stroke="#b7b7b7" style="stroke: var(--color1, #b7b7b7)" stroke-linejoin="round" stroke-linecap="round" stroke-miterlimit="4" stroke-width="2" d="M19.9 4.16h-9.69c-4.015 0-6.505 2.844-6.505 6.859v10.777c0 4.015 2.441 6.847 6.505 6.847h11.472c4.015 0 6.505-2.831 6.505-6.847v-9.385"></path>
</symbol>
<symbol id="icon-uploader" viewBox="0 0 32 32">
<path fill="none" stroke="#b7b7b7" style="stroke: var(--color1, #b7b7b7)" stroke-linejoin="round" stroke-linecap="round" stroke-miterlimit="4" stroke-width="2" d="M11.044 4.158h11.246c3.931 0 6.376 2.775 6.376 6.703v10.595c0 3.928-2.445 6.702-6.377 6.702h-11.245c-3.931 0-6.378-2.774-6.378-6.702v-10.595c0-3.928 2.458-6.703 6.378-6.703z"></path>
<path fill="none" stroke="#b7b7b7" style="stroke: var(--color1, #b7b7b7)" stroke-linejoin="round" stroke-linecap="round" stroke-miterlimit="4" stroke-width="2" d="M12.719 22.449c-0.891 0-1.614-0.723-1.614-1.614v-5.418c0-0.891 0.723-1.614 1.614-1.614s1.614 0.723 1.614 1.614v5.418c0 0.891-0.723 1.614-1.614 1.614z"></path>
<path fill="none" stroke="#b7b7b7" style="stroke: var(--color1, #b7b7b7)" stroke-linejoin="round" stroke-linecap="round" stroke-miterlimit="4" stroke-width="2" d="M20.617 22.448c-0.891 0-1.614-0.723-1.614-1.614v-9.35c0-0.891 0.723-1.614 1.614-1.614s1.614 0.723 1.614 1.614v9.35c0 0.891-0.723 1.614-1.614 1.614z"></path>
</symbol>
<symbol id="icon-languages" viewBox="0 0 32 32">
<path fill="#b7b7b7" style="fill: var(--color1, #b7b7b7)" d="M4.988 5.196c1.313-1.408 3.183-2.196 5.39-2.196h11.246c2.213 0 4.082 0.788 5.394 2.197 1.304 1.401 1.982 3.335 1.982 5.505v10.596c0 2.17-0.678 4.104-1.982 5.505-1.312 1.409-3.182 2.197-5.395 2.197h-11.245c-2.212 0-4.083-0.788-5.395-2.197-1.305-1.401-1.983-3.335-1.983-5.505v-10.596c0-2.171 0.682-4.105 1.988-5.505zM6.45 6.56c-0.903 0.969-1.45 2.386-1.45 4.142v10.596c0 1.757 0.545 3.174 1.447 4.142 0.894 0.96 2.213 1.56 3.931 1.56h11.245c1.719 0 3.038-0.6 3.931-1.56 0.901-0.968 1.446-2.385 1.446-4.142v-10.596c0-1.757-0.545-3.174-1.446-4.142-0.894-0.96-2.212-1.56-3.93-1.56h-11.246c-1.712 0-3.031 0.599-3.927 1.56z"></path>
<path fill="#b7b7b7" style="fill: var(--color1, #b7b7b7)" d="M4.988 5.196v0zM27.018 5.197v0zM27.018 26.803v0zM4.983 26.803v0zM6.45 6.56v0zM6.447 25.44v0zM25.554 25.44v0zM25.554 6.56v0zM6.743 6.833c0.812-0.871 2.021-1.433 3.634-1.433v-4.8c-2.801 0-5.332 1.015-7.145 2.96l3.511 3.273zM10.377 5.4h11.246v-4.8h-11.246v4.8zM21.624 5.4c1.62 0 2.828 0.562 3.637 1.432l3.513-3.27c-1.814-1.949-4.346-2.962-7.151-2.962v4.8zM25.261 6.832c0.82 0.881 1.339 2.194 1.339 3.87h4.8c0-2.664-0.837-5.219-2.625-7.14l-3.513 3.271zM26.6 10.702v10.596h4.8v-10.596h-4.8zM26.6 21.298c0 1.675-0.519 2.989-1.339 3.869l3.513 3.271c1.789-1.921 2.626-4.476 2.626-7.14h-4.8zM25.261 25.168c-0.81 0.87-2.018 1.432-3.639 1.432v4.8c2.805 0 5.338-1.013 7.152-2.962l-3.513-3.271zM21.623 26.6h-11.245v4.8h11.245v-4.8zM10.377 26.6c-1.62 0-2.828-0.563-3.638-1.432l-3.513 3.271c1.814 1.948 4.346 2.961 7.151 2.961v-4.8zM6.739 25.168c-0.82-0.881-1.339-2.195-1.339-3.87h-4.8c0 2.665 0.838 5.22 2.626 7.141l3.513-3.271zM5.4 21.298v-10.596h-4.8v10.596h4.8zM5.4 10.702c0-1.673 0.521-2.987 1.343-3.869l-3.511-3.273c-1.789 1.919-2.632 4.473-2.632 7.142h4.8zM4.695 4.924c-1.386 1.486-2.095 3.523-2.095 5.778h4.8c0-1.256 0.385-2.053 0.806-2.505l-3.511-3.273zM2.6 10.702v10.596h4.8v-10.596h-4.8zM2.6 21.298c0 2.253 0.706 4.291 2.090 5.778l3.513-3.271c-0.418-0.449-0.803-1.246-0.803-2.507h-4.8zM4.69 27.076c1.395 1.498 3.375 2.324 5.687 2.324v-4.8c-1.125 0-1.782-0.373-2.174-0.795l-3.513 3.271zM10.377 29.4h11.245v-4.8h-11.245v4.8zM21.623 29.4c2.313 0 4.293-0.826 5.688-2.324l-3.513-3.271c-0.392 0.422-1.049 0.795-2.175 0.795v4.8zM27.31 27.076c1.385-1.487 2.090-3.524 2.090-5.777h-4.8c0 1.261-0.385 2.058-0.803 2.507l3.513 3.271zM29.4 21.298v-10.596h-4.8v10.596h4.8zM29.4 10.702c0-2.253-0.705-4.29-2.089-5.777l-3.513 3.271c0.418 0.449 0.803 1.246 0.803 2.507h4.8zM27.311 4.924c-1.395-1.498-3.375-2.324-5.687-2.324v4.8c1.124 0 1.781 0.373 2.174 0.795l3.513-3.271zM21.624 2.6h-11.246v4.8h11.246v-4.8zM10.377 2.6c-2.307 0-4.287 0.827-5.682 2.324l3.511 3.273c0.396-0.425 1.055-0.797 2.172-0.797v-4.8z"></path>
<path fill="#b7b7b7" style="fill: var(--color1, #b7b7b7); stroke: var(--color1, #b7b7b7)" stroke="#b7b7b7" stroke-linejoin="miter" stroke-linecap="butt" stroke-miterlimit="4" stroke-width="2.4" d="M21.467 19.023v0z"></path>
<path fill="#b7b7b7" style="fill: var(--color1, #b7b7b7)" d="M19.275 14.234c0.376 0 0.72 0.211 0.891 0.545l3.267 6.397c0.251 0.492 0.056 1.094-0.436 1.345s-1.094 0.056-1.345-0.436l-2.376-4.653-2.375 4.652c-0.251 0.492-0.853 0.687-1.345 0.436s-0.687-0.853-0.436-1.345l3.265-6.397c0.171-0.335 0.515-0.545 0.891-0.545z"></path>
<path fill="#b7b7b7" style="fill: var(--color1, #b7b7b7)" d="M20.165 14.78v0zM23.432 21.177v0zM21.651 22.086v0zM19.275 17.434l2.137-1.091-2.138-4.187-2.137 4.187 2.138 1.091zM16.9 22.086v0zM15.555 22.522l1.092-2.137-0.001-0-1.091 2.138zM15.119 21.177v0zM18.384 14.78v0zM19.275 16.634c-0.525 0-1.007-0.294-1.247-0.764l4.275-2.182c-0.581-1.139-1.752-1.854-3.028-1.854v4.8zM18.028 15.871l3.267 6.397 4.275-2.183-3.267-6.397-4.275 2.183zM21.294 22.268c-0.351-0.688-0.079-1.531 0.61-1.883l2.183 4.275c1.672-0.854 2.335-2.902 1.482-4.574l-4.275 2.182zM21.904 20.385c0.689-0.352 1.532-0.078 1.884 0.61l-4.275 2.182c0.854 1.673 2.902 2.336 4.575 1.482l-2.183-4.275zM23.788 20.995l-2.376-4.653-4.275 2.183 2.376 4.653 4.275-2.183zM17.137 16.342l-2.375 4.652 4.275 2.182 2.375-4.652-4.275-2.182zM14.762 20.995c0.351-0.688 1.195-0.962 1.884-0.61l-2.183 4.275c1.673 0.854 3.721 0.19 4.575-1.482l-4.275-2.182zM16.646 20.384c0.689 0.351 0.962 1.195 0.611 1.883l-4.275-2.182c-0.854 1.673-0.19 3.72 1.482 4.574l2.182-4.275zM17.256 22.268l3.265-6.397-4.275-2.182-3.265 6.397 4.275 2.182zM20.522 15.871c-0.239 0.469-0.721 0.764-1.247 0.764v-4.8c-1.278 0-2.447 0.716-3.028 1.854l4.275 2.182z"></path>
<path fill="#b7b7b7" style="fill: var(--color1, #b7b7b7)" d="M11.509 13.122c0.537-0.131 1.078 0.199 1.208 0.735 0.273 1.123 0.797 2.147 1.504 3.006 0.242 0.29 0.509 0.566 0.797 0.824 0.411 0.369 0.446 1.001 0.078 1.412s-1.001 0.446-1.412 0.078c-0.357-0.32-0.694-0.667-1.002-1.037l-0.003-0.004c-0.894-1.086-1.558-2.382-1.904-3.805-0.131-0.537 0.199-1.078 0.735-1.208z"></path>
<path fill="#b7b7b7" style="fill: var(--color1, #b7b7b7)" d="M11.509 13.122l0.567 2.332 0.001-0-0.568-2.332zM12.717 13.858v0zM14.22 16.863l-1.854 1.524 0.009 0.011 1.845-1.535zM15.017 17.687v0zM13.683 19.177v0zM12.681 18.14l-1.874 1.5 0.014 0.018 0.014 0.017 1.845-1.534zM12.677 18.136l1.874-1.5-0.010-0.013-0.010-0.013-1.853 1.525zM10.773 14.331v0zM12.076 15.454c-0.752 0.183-1.509-0.278-1.692-1.029l4.664-1.135c-0.444-1.824-2.283-2.944-4.108-2.5l1.136 4.664zM10.385 14.425c0.361 1.483 1.052 2.831 1.982 3.962l3.708-3.048c-0.483-0.588-0.84-1.286-1.026-2.049l-4.664 1.135zM12.375 18.398c0.321 0.385 0.671 0.745 1.041 1.077l3.202-3.576c-0.205-0.184-0.39-0.375-0.553-0.571l-3.69 3.070zM13.416 19.475c-0.576-0.516-0.624-1.401-0.109-1.976l3.576 3.202c1.252-1.399 1.134-3.548-0.264-4.801l-3.203 3.575zM13.307 17.498c0.516-0.577 1.401-0.625 1.977-0.109l-3.202 3.575c1.399 1.253 3.548 1.135 4.801-0.265l-3.576-3.202zM15.284 17.389c-0.275-0.246-0.529-0.508-0.758-0.784l-3.691 3.069c0.387 0.465 0.806 0.896 1.246 1.291l3.202-3.576zM14.554 16.64l-0.003-0.004-3.748 2.999 0.003 0.004 3.748-2.999zM14.531 16.611c-0.67-0.814-1.167-1.784-1.425-2.848l-4.664 1.135c0.434 1.784 1.265 3.405 2.383 4.763l3.707-3.050zM13.105 13.763c0.183 0.751-0.278 1.508-1.030 1.691l-1.135-4.664c-1.825 0.444-2.944 2.283-2.5 4.108l4.664-1.135z"></path>
<path fill="#b7b7b7" style="fill: var(--color1, #b7b7b7); stroke: var(--color1, #b7b7b7)" stroke="#b7b7b7" stroke-linejoin="miter" stroke-linecap="butt" stroke-miterlimit="4" stroke-width="2.4" d="M16.752 11.502c0 0.001 0 0.001 0 0.002l-0-0.002z"></path>
<path fill="#b7b7b7" style="fill: var(--color1, #b7b7b7)" d="M8.458 11.526c0-0.552 0.448-1 1-1h9.265c0.552 0 1 0.448 1 1s-0.448 1-1 1h-9.265c-0.552 0-1-0.448-1-1z"></path>
<path fill="#b7b7b7" style="fill: var(--color1, #b7b7b7)" d="M13.852 9.37c0.552 0 1 0.448 1 1v1.153c0 0.552-0.448 1-1 1s-1-0.448-1-1v-1.153c0-0.552 0.448-1 1-1z"></path>
</symbol>
<symbol id="icon-presets" viewBox="0 0 32 32">
<path fill="none" stroke="#b7b7b7" style="stroke: var(--color1, #b7b7b7)" stroke-linejoin="round" stroke-linecap="round" stroke-miterlimit="4" stroke-width="2" d="M8.561 10.827h8.047c2.813 0 4.563 1.985 4.563 4.795v7.583c0 2.81-1.75 4.795-4.564 4.795h-8.046c-2.813 0-4.561-1.985-4.561-4.795v-7.583c0-2.81 1.758-4.795 4.561-4.795z"></path>
<path fill="none" stroke="#b7b7b7" style="stroke: var(--color1, #b7b7b7)" stroke-linejoin="round" stroke-linecap="round" stroke-miterlimit="4" stroke-width="2" d="M21.177 16.922l-5.184 4.247M19.701 13.323l-7.764 6.372M16.878 10.827l-5.961 4.895"></path>
<path fill="none" stroke="#b7b7b7" style="stroke: var(--color1, #b7b7b7)" stroke-linejoin="round" stroke-linecap="round" stroke-miterlimit="4" stroke-width="2" d="M23.436 4h-8.047c-2.803 0-4.561 1.985-4.561 4.795v7.583c0 2.81 1.749 4.795 4.561 4.795h8.046c2.814 0 4.564-1.985 4.564-4.795v-7.583c0-2.81-1.75-4.795-4.563-4.795z"></path>
</symbol>
<symbol id="icon-arrow_drop_down" viewBox="0 0 64 32">
<path fill="#fff" style="fill: var(--color1, #fff)" d="M32 0l32 32h-64l32-32z"></path>
</symbol>
<symbol id="icon-arrow_back" viewBox="0 0 32 32">
<path d="M11 16c0 0.23 0.083 0.433 0.258 0.608l7.309 7.143c0.157 0.166 0.36 0.249 0.599 0.249 0.479 0 0.848-0.359 0.848-0.839 0-0.24-0.101-0.442-0.249-0.599l-6.71-6.562 6.71-6.562c0.147-0.157 0.249-0.369 0.249-0.599 0-0.479-0.369-0.839-0.848-0.839-0.24 0-0.442 0.083-0.599 0.24l-7.309 7.152c-0.175 0.166-0.258 0.378-0.258 0.608z"></path>
</symbol>
</defs>
</svg>

